<?xml version="1.0" standalone="no"?><!DOCTYPE svg PUBLIC "-//W3C//DTD SVG 1.1//EN" "http://www.w3.org/Graphics/SVG/1.1/DTD/svg11.dtd"><svg t="1650803118407" class="icon" viewBox="0 0 1024 1024" version="1.1" xmlns="http://www.w3.org/2000/svg" p-id="1419" xmlns:xlink="http://www.w3.org/1999/xlink" width="200" height="200"><defs><style type="text/css"></style></defs><path d="M128.692 127.99v191.05H319.04V127.99H128.692z m127.261 127.963h-64.169v-64.169h64.169v64.169zM511.333 704.223v191.416h385.792V704.223H511.333zM832 832H576.112v-64.198H832V832zM384.075 127.99v191.05h512.099V127.99H384.075z m448.087 127.963H448.087v-64.169h384.075v64.169zM511.333 448.209v191.416H896.23V448.209H511.333z m319.922 127.776H575.961v-64.198h255.294v64.198zM192.037 319.041h64.012v512.68h-64.012z" p-id="1420" fill="#707070"></path><path d="M256.05 767.802h255.284v63.919H256.05zM256.05 512h255.284v63.381H256.05z" p-id="1421" fill="#707070"></path></svg>